<svg width="773" height="117" viewBox="0 0 773 117" fill="none" xmlns="http://www.w3.org/2000/svg">
<path d="M274.349 92.2167C96.7917 44.6403 46.7111 -70.5175 46.7111 -70.5175L14.6057 -123.873L2.96986 -192.495C2.96986 -192.495 -36.8775 -671.634 213.852 -637.581C464.582 -603.527 805.959 -608.336 883.336 -485.628C960.713 -362.92 893.065 -291.495 841.625 -251.444C790.185 -211.393 742.476 -142.907 796.332 -82.4068C850.187 -21.9069 863.21 76.3108 783.939 109.422C704.668 142.534 620.042 18.4473 526.877 77.0592C434.539 135.15 372.032 118.397 276.914 92.9041L274.349 92.2167Z" fill="url(#paint0_linear_6630_11291)"/>
<defs>
<linearGradient id="paint0_linear_6630_11291" x1="985" y1="-256" x2="-100" y2="230" gradientUnits="userSpaceOnUse">
<stop stop-color="#E5F5F4"/>
<stop offset="1" stop-color="#F4FBFA"/>
</linearGradient>
</defs>
</svg>
