<svg width="259" height="60" viewBox="0 0 259 60" fill="none" xmlns="http://www.w3.org/2000/svg">
<path d="M4.512 27.928V22.096H7.92C9.96 22.096 11.208 23.248 11.208 25.048C11.208 26.8 9.96 27.928 7.92 27.928H4.512ZM8.352 30.04C11.496 30.04 13.608 27.904 13.608 25.024C13.608 22.168 11.496 19.984 8.352 19.984H2.16V37H4.512V30.04H8.352ZM20.2234 35.344C18.3034 35.344 16.6234 33.904 16.6234 31.216C16.6234 28.552 18.3034 27.112 20.2234 27.112C22.1434 27.112 23.8234 28.552 23.8234 31.216C23.8234 33.904 22.1434 35.344 20.2234 35.344ZM20.2234 25.096C16.7674 25.096 14.3194 27.712 14.3194 31.216C14.3194 34.744 16.7674 37.36 20.2234 37.36C23.6794 37.36 26.1274 34.744 26.1274 31.216C26.1274 27.712 23.6794 25.096 20.2234 25.096ZM35.2834 25.456L32.2834 34.144L29.6914 25.456H27.2194L31.0114 37H33.3874L36.3874 28.216L39.4594 37H41.7874L45.5314 25.456H43.1554L40.6114 34.144L37.6114 25.456H35.2834ZM49.0403 30.04C49.1363 28.552 50.2883 27.088 52.1843 27.088C54.2243 27.088 55.3043 28.384 55.3523 30.04H49.0403ZM55.6883 33.04C55.2563 34.336 54.3203 35.368 52.4483 35.368C50.5043 35.368 49.0163 33.928 48.9683 31.864H57.6562C57.6803 31.72 57.7043 31.432 57.7043 31.144C57.7043 27.544 55.7123 25.096 52.1603 25.096C49.2563 25.096 46.6403 27.568 46.6403 31.192C46.6403 35.104 49.3523 37.36 52.4483 37.36C55.1363 37.36 56.9843 35.752 57.6323 33.712L55.6883 33.04ZM66.9921 25.336C66.8721 25.312 66.5601 25.264 66.2481 25.264C65.0721 25.264 63.6321 25.696 62.7921 27.472V25.456H60.5841V37H62.8401V31.216C62.8401 28.672 64.1121 27.664 66.0081 27.664C66.3201 27.664 66.6561 27.688 66.9921 27.736V25.336ZM70.7434 30.04C70.8394 28.552 71.9914 27.088 73.8874 27.088C75.9274 27.088 77.0074 28.384 77.0554 30.04H70.7434ZM77.3914 33.04C76.9594 34.336 76.0234 35.368 74.1514 35.368C72.2074 35.368 70.7194 33.928 70.6714 31.864H79.3594C79.3834 31.72 79.4074 31.432 79.4074 31.144C79.4074 27.544 77.4154 25.096 73.8634 25.096C70.9594 25.096 68.3434 27.568 68.3434 31.192C68.3434 35.104 71.0554 37.36 74.1514 37.36C76.8394 37.36 78.6874 35.752 79.3354 33.712L77.3914 33.04ZM83.6312 31.192C83.6312 28.816 84.9752 27.136 87.0392 27.136C89.1032 27.136 90.3512 28.768 90.3512 31.144C90.3512 33.52 89.0792 35.32 87.0152 35.32C84.8552 35.32 83.6312 33.568 83.6312 31.192ZM90.3752 35.44C90.3752 36.136 90.4472 36.736 90.4952 37H92.6792C92.6552 36.808 92.5592 35.968 92.5592 34.864V19.624H90.3272V27.088C89.9432 26.152 88.8392 25.144 86.7992 25.144C83.5352 25.144 81.3272 27.928 81.3272 31.192C81.3272 34.624 83.4152 37.312 86.7992 37.312C88.5992 37.312 89.8232 36.352 90.3752 35.248V35.44ZM104.629 37V35.32C105.349 36.568 106.669 37.312 108.373 37.312C111.805 37.312 113.749 34.6 113.749 31.168C113.749 27.808 111.949 25.12 108.445 25.12C106.525 25.12 105.181 26.056 104.629 27.088V19.624H102.397V37H104.629ZM111.445 31.168C111.445 33.664 110.101 35.296 108.037 35.296C106.045 35.296 104.605 33.664 104.605 31.168C104.605 28.672 106.045 27.112 108.037 27.112C110.125 27.112 111.445 28.672 111.445 31.168ZM119.034 41.824L126.546 25.456H124.122L120.666 33.424L117.066 25.456H114.474L119.442 35.728L116.562 41.824H119.034Z" fill="#4F5E71"/>
<path fill-rule="evenodd" clip-rule="evenodd" d="M162.906 34.2709L158.491 29.8283L162.906 25.3861C163.463 24.8209 163.507 23.9522 162.906 23.3444C162.305 22.7361 161.447 22.7792 160.889 23.3444L155.518 28.7826C155.243 29.0585 155.091 29.4362 155.098 29.8283C155.091 30.2203 155.243 30.5981 155.518 30.8739L160.889 36.3118C161.447 36.877 162.305 36.9205 162.906 36.3118C163.506 35.7044 163.463 34.8357 162.906 34.2709ZM190.722 24.7944C190.782 24.6405 190.843 24.3948 190.843 24.2413C190.843 23.4122 190.206 23.0126 189.539 23.0126C188.962 23.0126 188.598 23.2892 188.386 23.9344L185.717 32.1965L182.653 23.8726C182.471 23.3509 182.137 23.0126 181.5 23.0126C180.863 23.0126 180.529 23.3505 180.348 23.8726L177.314 32.1965L174.644 23.9344C174.432 23.2896 174.068 23.0126 173.492 23.0126C172.824 23.0126 172.187 23.4122 172.187 24.2413C172.187 24.3948 172.247 24.6405 172.308 24.7944L176.04 36.0048C176.161 36.4961 176.555 36.8344 177.223 36.8344C177.89 36.8344 178.254 36.4657 178.436 35.9739L181.5 27.4661L184.594 35.9739C184.776 36.4957 185.17 36.8344 185.808 36.8344C186.445 36.8344 186.809 36.5274 186.991 36.0048L190.722 24.7944ZM154.422 24.3522V35.2866C154.422 36.0848 153.845 36.73 152.996 36.73C152.146 36.73 151.57 36.0848 151.57 35.287V24.3522C151.57 23.5539 152.177 22.9087 152.996 22.9087C153.815 22.9087 154.422 23.5539 154.422 24.3522ZM166.49 24.4566V35.39C166.49 36.1887 167.067 36.8344 167.916 36.8344C168.766 36.8344 169.343 36.1887 169.343 35.39V24.4566C169.343 23.6579 168.735 23.0131 167.916 23.0131C167.098 23.0131 166.491 23.6579 166.491 24.4566H166.49ZM193.737 35.39V24.4566C193.737 23.6579 194.343 23.0131 195.162 23.0131C195.981 23.0131 196.588 23.6579 196.588 24.4566V35.39C196.588 36.1887 196.012 36.8344 195.162 36.8344C194.313 36.8344 193.737 36.1887 193.737 35.39ZM222.593 25.5261C223.871 25.5261 224.616 26.02 225.329 26.5705C225.614 26.7696 225.893 26.8661 226.18 26.8661C226.873 26.8661 227.395 26.3287 227.395 25.6165C227.395 25.2844 227.262 24.9879 226.988 24.7105C225.971 23.6439 224.328 23.0074 222.593 23.0074C218.66 23.0074 215.912 25.8292 215.912 29.8692C215.912 33.9096 218.66 36.7313 222.594 36.7313C224.328 36.7313 225.968 36.097 226.981 35.0352C227.259 34.7526 227.395 34.4544 227.395 34.1222C227.395 33.41 226.873 32.8726 226.18 32.8726C225.892 32.8726 225.607 32.9739 225.309 33.1831C224.635 33.7039 223.87 34.2126 222.593 34.2126C220.237 34.2126 218.591 32.4265 218.591 29.8692C218.591 27.3118 220.237 25.5261 222.593 25.5261ZM229.149 29.8692C229.149 25.9574 232.038 23.0074 235.868 23.0074C239.699 23.0074 242.587 25.9574 242.587 29.8692C242.587 33.7813 239.699 36.7313 235.868 36.7313C232.038 36.7313 229.149 33.7813 229.149 29.8692ZM235.868 34.2805C233.21 34.2805 231.82 32.0613 231.82 29.8692C231.82 26.9735 233.857 25.4583 235.868 25.4583C238.527 25.4583 239.919 27.6774 239.919 29.8692C239.919 32.7652 237.881 34.2805 235.868 34.2805ZM255.932 23.8761C256.165 23.3809 256.599 23.0848 257.093 23.0848V23.0852C257.854 23.0852 258.365 23.6031 258.365 24.3735V35.3848C258.365 36.0961 257.806 36.6535 257.093 36.6535C256.402 36.6535 255.84 36.0844 255.84 35.3848V29.5157L252.883 35.9392C252.67 36.3931 252.268 36.6535 251.78 36.6535C251.269 36.6535 250.919 36.4283 250.679 35.9457L247.682 29.5144V35.3648C247.682 36.0635 247.099 36.6535 246.41 36.6535C245.73 36.6535 245.157 36.0635 245.157 35.3648V24.3544C245.153 24.0166 245.284 23.6916 245.519 23.4527C245.755 23.2138 246.076 23.0812 246.41 23.0848C246.921 23.0848 247.293 23.3309 247.581 23.8587L251.743 32.6031L251.779 32.6805L255.932 23.8761Z" fill="#171B1E"/>
<path d="M203.384 42.5548C203.017 42.2794 202.573 42.131 202.116 42.1317C201.437 42.1329 200.799 42.4593 200.394 43.0117C197.713 46.69 193.927 49.7739 189.446 51.9295C184.786 54.173 179.46 55.3578 174.028 55.3578C165.74 55.3578 157.967 52.6591 152.141 47.7578C149.344 45.4082 147.153 42.6804 145.629 39.6508C144.069 36.5487 143.277 33.2578 143.277 29.87C143.277 26.4822 144.069 23.1908 145.629 20.0878C147.923 15.5265 151.748 11.6322 156.69 8.82607C161.812 5.91737 167.81 4.37998 174.039 4.37998C179.471 4.37998 184.81 5.57128 189.479 7.8252C193.97 9.99215 197.758 13.0891 200.434 16.7817C200.838 17.3367 201.478 17.6647 202.159 17.6656C202.614 17.6664 203.057 17.5193 203.423 17.2461C204.373 16.5377 204.578 15.1841 203.881 14.22C200.786 9.95259 196.443 6.38955 191.319 3.9165C186.079 1.38737 180.104 0.0508498 174.04 0.050415C164.755 0.0521542 156.008 3.10607 149.409 8.64911C146.163 11.3782 143.609 14.5652 141.819 18.1226C139.948 21.8378 138.999 25.79 139 29.8695C138.999 33.9491 139.948 37.9008 141.819 41.6161C144.502 46.9435 148.921 51.4639 154.598 54.6882C160.358 57.9582 167.08 59.6874 174.039 59.6878C180.087 59.6878 186.049 58.3574 191.282 55.84C196.396 53.3782 200.736 49.8313 203.835 45.5826C204.535 44.6199 204.333 43.2653 203.384 42.5543" fill="#00A991"/>
<path d="M206.804 27.4847C205.504 27.4864 204.451 28.553 204.449 29.8691C204.451 31.1852 205.504 32.2518 206.804 32.2534C208.104 32.2518 209.157 31.1852 209.158 29.8691C209.157 28.553 208.104 27.4864 206.804 27.4847" fill="#00A991"/>
</svg>
